{
  "accessors": [
    {
      "bufferView": 2,
      "componentType": 5126,
      "count": 3133,
      "max": [
        0.23814459145069122,
        0.1321689784526825,
        0.25534331798553467
      ],
      "min": [
        -0.23814459145069122,
        -0.1321689635515213,
        -0.2274131029844284
      ],
      "type": "VEC3"
    },
    {
      "bufferView": 2,
      "byteOffset": 37596,
      "componentType": 5126,
      "count": 3133,
      "max": [
        0.9992638826370239,
        0.999577522277832,
        0.9988867044448853
      ],
      "min": [
        -0.9998316168785095,
        -0.9999280571937561,
        -0.9999962449073792
      ],
      "type": "VEC3"
    },
    {
      "bufferView": 3,
      "componentType": 5126,
      "count": 3133,
      "max": [
        0.9997840523719788,
        0.999648928642273,
        0.9974002242088318,
        1.0
      ],
      "min": [
        -0.9999507665634155,
        -0.9934577941894531,
        -0.9997992515563965,
        -1.0
      ],
      "type": "VEC4"
    },
    {
      "bufferView": 1,
      "componentType": 5126,
      "count": 3133,
      "max": [
        0.9958543181419373,
        0.9942553639411926
      ],
      "min": [
        0.014125498943030834,
        0.012633947655558586
      ],
      "type": "VEC2"
    },
    {
      "bufferView": 2,
      "byteOffset": 75192,
      "componentType": 5126,
      "count": 3133,
      "max": [
        0.012341156601905823,
        0.010791093111038208,
        0.0052285753190517426
      ],
      "min": [
        -0.012134283781051636,
        -0.028293438255786896,
        -0.06376798450946808
      ],
      "type": "VEC3"
    },
    {
      "bufferView": 2,
      "byteOffset": 112788,
      "componentType": 5126,
      "count": 3133,
      "max": [
        0.2019849270582199,
        0.1178986132144928,
        0.20944616198539734
      ],
      "min": [
        -0.21427902579307556,
        -0.11541414260864258,
        -0.19812867045402527
      ],
      "type": "VEC3"
    },
    {
      "bufferView": 0,
      "componentType": 5125,
      "count": 16566,
      "type": "SCALAR"
    },
    {
      "bufferView": 4,
      "componentType": 5126,
      "count": 101,
      "max": [
        3.3333332538604736
      ],
      "min": [
        0.0
      ],
      "type": "SCALAR"
    },
    {
      "bufferView": 4,
      "byteOffset": 404,
      "componentType": 5126,
      "count": 101,
      "max": [
        1.0
      ],
      "min": [
        0.0
      ],
      "type": "SCALAR"
    }
  ],
  "animations": [
    {
      "channels": [
        {
          "sampler": 0,
          "target": {
            "node": 5,
            "path": "weights"
          }
        }
      ],
      "name": "Take 001",
      "samplers": [
        {
          "input": 7,
          "interpolation": "LINEAR",
          "output": 8
        }
      ]
    }
  ],
  "asset": {
    "extras": {
      "author": "AVRcontent (https://sketchfab.com/AVRcontent)",
      "license": "SKETCHFAB Standard (https://sketchfab.com/licenses)",
      "source": "https://sketchfab.com/3d-models/healthy-human-lungs-animated-ad1a6c31b37547fabfc9fe37af69796b",
      "title": "Healthy human lungs (animated)"
    },
    "generator": "Sketchfab-12.67.0",
    "version": "2.0"
  },
  "bufferViews": [
    {
      "buffer": 0,
      "byteLength": 66264,
      "name": "floatBufferViews",
      "target": 34963
    },
    {
      "buffer": 0,
      "byteLength": 25064,
      "byteOffset": 66264,
      "byteStride": 8,
      "name": "floatBufferViews",
      "target": 34962
    },
    {
      "buffer": 0,
      "byteLength": 150384,
      "byteOffset": 91328,
      "byteStride": 12,
      "name": "floatBufferViews",
      "target": 34962
    },
    {
      "buffer": 0,
      "byteLength": 50128,
      "byteOffset": 241712,
      "byteStride": 16,
      "name": "floatBufferViews",
      "target": 34962
    },
    {
      "buffer": 0,
      "byteLength": 808,
      "byteOffset": 291840,
      "name": "floatBufferViews"
    }
  ],
  "buffers": [
    {
      "byteLength": 292648,
      "uri": "scene.bin"
    }
  ],
  "extensionsUsed": [
    "KHR_materials_clearcoat"
  ],
  "images": [
    {
      "uri": "textures/Lungs_LowPoly_Mat_baseColor.jpeg"
    },
    {
      "uri": "textures/Lungs_LowPoly_Mat_metallicRoughness.png"
    },
    {
      "uri": "textures/Lungs_LowPoly_Mat_normal.png"
    }
  ],
  "materials": [
    {
      "doubleSided": true,
      "extensions": {
        "KHR_materials_clearcoat": {
          "clearcoatFactor": 0.05,
          "clearcoatRoughnessFactor": 0.05
        }
      },
      "name": "Lungs_LowPoly_Mat",
      "normalTexture": {
        "index": 2
      },
      "pbrMetallicRoughness": {
        "baseColorTexture": {
          "index": 0
        },
        "metallicRoughnessTexture": {
          "index": 1
        }
      }
    }
  ],
  "meshes": [
    {
      "name": "0",
      "primitives": [
        {
          "attributes": {
            "NORMAL": 1,
            "POSITION": 0,
            "TANGENT": 2,
            "TEXCOORD_0": 3
          },
          "indices": 6,
          "material": 0,
          "mode": 4,
          "targets": [
            {
              "NORMAL": 5,
              "POSITION": 4
            }
          ]
        }
      ],
      "weights": [
        0.0
      ]
    }
  ],
  "nodes": [
    {
      "children": [
        1
      ],
      "matrix": [
        1.2480461597442627,
        0.0,
        0.0,
        0.0,
        0.0,
        2.771219164686173e-16,
        -1.2480461597442627,
        0.0,
        0.0,
        1.2480461597442627,
        2.771219164686173e-16,
        0.0,
        0.0,
        0.0,
        0.0,
        1.0
      ],
      "name": "Sketchfab_model"
    },
    {
      "children": [
        2
      ],
      "matrix": [
        1.0,
        0.0,
        0.0,
        0.0,
        0.0,
        0.0,
        1.0,
        0.0,
        0.0,
        -1.0,
        0.0,
        0.0,
        0.0,
        0.0,
        0.0,
        1.0
      ],
      "name": "Non-smoker.FBX"
    },
    {
      "children": [
        3
      ],
      "name": "Object_2"
    },
    {
      "children": [
        4
      ],
      "name": "RootNode"
    },
    {
      "children": [
        5
      ],
      "name": "Lungs_LowPoly",
      "rotation": [
        -0.7071068286895752,
        -0.0,
        0.0,
        0.7071068286895752
      ],
      "translation": [
        -0.0232679545879364,
        0.2528151571750641,
        0.0064747822470963
      ]
    },
    {
      "mesh": 0,
      "name": "0"
    }
  ],
  "samplers": [
    {
      "magFilter": 9729,
      "minFilter": 9987,
      "wrapS": 10497,
      "wrapT": 10497
    }
  ],
  "scene": 0,
  "scenes": [
    {
      "name": "Sketchfab_Scene",
      "nodes": [
        0
      ]
    }
  ],
  "textures": [
    {
      "sampler": 0,
      "source": 0
    },
    {
      "sampler": 0,
      "source": 1
    },
    {
      "sampler": 0,
      "source": 2
    }
  ]
}
